<?xml version="1.0" standalone="no"?><!DOCTYPE svg PUBLIC "-//W3C//DTD SVG 1.1//EN" "http://www.w3.org/Graphics/SVG/1.1/DTD/svg11.dtd"><svg t="1592295486497" class="icon" viewBox="0 0 1024 1024" version="1.1" xmlns="http://www.w3.org/2000/svg" p-id="837" xmlns:xlink="http://www.w3.org/1999/xlink" width="200" height="200"><defs><style type="text/css"></style></defs><path d="M804.17 804.17c-3.62 0.5-7.29 0.5-10.91 0L247.87 648.34c-20.34-7.02-31.13-29.2-24.11-49.53 6.5-18.82 26.13-29.71 45.54-25.26l545.39 155.83c21.52 2.9 36.6 22.7 33.7 44.22s-22.7 36.6-44.22 33.7v-3.13zM319.94 563.43l389.57-272.7c17.64-12.37 21.91-36.7 9.54-54.35s-36.7-21.91-54.34-9.54l-389.57 272.7c-17.64 12.37-21.91 36.7-9.54 54.35 12.37 17.64 36.7 21.91 54.34 9.54z" fill="#3FBCAA" p-id="838"></path><path d="M719.25 236.57c12.23 17.65 7.88 41.87-9.74 54.15l-113.36 77.91a116.848 116.848 0 0 1-42.07-65.44l110.64-77.91c17.85-12.01 42.06-7.28 54.07 10.58l0.46 0.71z m95.83 491.25l-74.41-21.43a116.912 116.912 0 0 0-48.31 67.39L794.04 803c20.88 8.21 44.47-2.06 52.68-22.95s-2.06-44.47-22.95-52.68a39.977 39.977 0 0 0-8.31-2.28l-0.38 2.73z" fill="#369988" p-id="839"></path><path d="M804.17 258.78c0 64.54-52.32 116.87-116.87 116.87s-116.87-52.33-116.87-116.87 52.32-116.87 116.87-116.87 116.87 52.33 116.87 116.87zM219.83 414.61C133.77 414.61 64 484.37 64 570.44c0 86.06 69.76 155.83 155.83 155.83s155.83-69.76 155.83-155.83c-0.01-86.07-69.77-155.83-155.83-155.83z m623.3 233.74c-64.55 0-116.87 52.33-116.87 116.87s52.32 116.87 116.87 116.87c64.55 0 116.87-52.33 116.87-116.87s-52.32-116.87-116.87-116.87z" fill="#43EDCC" p-id="840"></path></svg>