<?xml version="1.0" encoding="utf-8"?>
<!-- Generator: Adobe Illustrator 23.0.2, SVG Export Plug-In . SVG Version: 6.00 Build 0)  -->
<svg version="1.1" id="图层_1" xmlns="http://www.w3.org/2000/svg" xmlns:xlink="http://www.w3.org/1999/xlink" x="0px" y="0px"
	 viewBox="0 0 200 200" style="enable-background:new 0 0 200 200;" xml:space="preserve">
<style type="text/css">
	.st0{fill:url(#SVGID_1_);}
</style>
<g>
	<linearGradient id="SVGID_1_" gradientUnits="userSpaceOnUse" x1="40" y1="99.6" x2="160" y2="99.6">
		<stop  offset="0" style="stop-color:#25C2A0"/>
		<stop  offset="1" style="stop-color:#2FEED2;stop-opacity:0.52"/>
	</linearGradient>
	<path class="st0" d="M70.4,127.2c-8,0-15.2,6.4-15.2,15.2c0,8.8,6.4,15.2,15.2,15.2c8,0,15.2-6.4,15.2-15.2
		C85.6,133.6,78.4,127.2,70.4,127.2z M89.6,150.4h61.6c4.8,0,8.8-4,8.8-8.8s-4-8.8-8.8-8.8H89.6c0.8,2.4,1.6,5.6,1.6,8.8
		S91.2,148,89.6,150.4z M129.6,84c-8,0-15.2,6.4-15.2,15.2c0,8,6.4,15.2,15.2,15.2c8.8,0,15.2-7.2,15.2-15.2S138.4,84,129.6,84z
		 M149.6,108h1.6c4.8,0,8.8-4,8.8-8.8s-4-8.8-8.8-8.8h-1.6c0.8,3.2,1.6,5.6,1.6,8.8C151.2,102.4,150.4,105.6,149.6,108z M87.2,41.6
		c-8,0-15.2,6.4-15.2,15.2S78.4,72,87.2,72s15.2-7.2,15.2-16S95.2,41.6,87.2,41.6z M106.4,64.8h44.8c4.8,0,8.8-4,8.8-8.8
		c0-4-4-8-8.8-8h-44.8c1.6,2.4,2.4,5.6,2.4,8.8C108.8,60,108,62.4,106.4,64.8z M68,48H48.8C44,48,40,52,40,56.8s4,8.8,8.8,8.8H68
		c-0.8-2.4-1.6-5.6-1.6-8.8S66.4,50.4,68,48z M110.4,90.4H48.8c-4.8,0-8.8,4-8.8,8.8s4,8.8,8.8,8.8h61.6c-1.6-2.4-1.6-5.6-1.6-8.8
		S108.8,93.6,110.4,90.4z M50.4,133.6h-1.6c-4.8,0-8.8,4-8.8,8.8s4,8.8,8.8,8.8h1.6c-0.8-2.4-1.6-5.6-1.6-8.8S49.6,136,50.4,133.6z"
		/>
</g>
</svg>
