<?xml version="1.0" standalone="no"?><!DOCTYPE svg PUBLIC "-//W3C//DTD SVG 1.1//EN" "http://www.w3.org/Graphics/SVG/1.1/DTD/svg11.dtd"><svg t="1592294248023" class="icon" viewBox="0 0 1024 1024" version="1.1" xmlns="http://www.w3.org/2000/svg" p-id="1410" xmlns:xlink="http://www.w3.org/1999/xlink" width="200" height="200"><defs><style type="text/css"></style></defs><path d="M309.614778 369.235635a28.914302 28.914302 0 0 1-28.914302-34.841734 30.504588 30.504588 0 0 1 30.215446-22.98687H454.186287a28.914302 28.914302 0 0 0 28.914302-28.914302V260.228717h57.828604v22.119441a28.914302 28.914302 0 0 0 28.914302 28.914301h142.692079a30.360017 30.360017 0 0 1 30.793732 23.131442 28.914302 28.914302 0 0 1-28.914302 34.841734z" fill="#F79292" p-id="1411"></path><path d="M526.472042 274.685868v7.66229a43.371453 43.371453 0 0 0 43.371453 43.371452h142.692079a16.047438 16.047438 0 0 1 16.047438 11.276578 14.457151 14.457151 0 0 1-3.036002 12.144007 14.457151 14.457151 0 0 1-11.132006 5.349146H309.614778a14.457151 14.457151 0 0 1-11.132006-5.349146 14.457151 14.457151 0 0 1-3.325145-11.999435 16.047438 16.047438 0 0 1 16.047438-11.276578H454.186287a43.371453 43.371453 0 0 0 43.371453-43.371453V274.685868h28.914302m28.914302-28.914302h-86.742906v36.576592a14.457151 14.457151 0 0 1-14.457151 14.45715H311.494208a44.672596 44.672596 0 0 0-44.383454 34.697163A43.371453 43.371453 0 0 0 309.614778 383.692786h404.800226a43.371453 43.371453 0 0 0 42.504024-52.045744 44.672596 44.672596 0 0 0-44.383454-34.697162H569.843495a14.457151 14.457151 0 0 1-14.457151-14.457151V245.771566z" fill="#333333" p-id="1412"></path><path d="M513.026891 274.685868a130.114358 130.114358 0 1 1 130.114359-130.114359 130.114358 130.114358 0 0 1-130.114359 130.114359z" fill="#77EDB7" p-id="1413"></path><path d="M513.026891 28.914302a115.657207 115.657207 0 1 1-115.657207 115.657207 115.657207 115.657207 0 0 1 115.657207-115.657207m0-28.914302a144.571509 144.571509 0 1 0 144.57151 144.571509 144.571509 144.571509 0 0 0-144.57151-144.571509z" fill="#333333" p-id="1414"></path><path d="M506.954888 948.678244A96.140054 96.140054 0 0 1 410.814834 852.971905V370.392207h202.400113V852.971905a96.140054 96.140054 0 0 1-95.995482 95.995482z" fill="#FFFFFF" p-id="1415"></path><path d="M598.757796 384.849358V852.971905a81.682903 81.682903 0 0 1-81.538331 81.538331h-10.264577A81.682903 81.682903 0 0 1 425.271985 852.971905V384.849358h173.485811m28.914302-28.914302H396.357683V852.971905a110.886348 110.886348 0 0 0 110.452634 110.452633h10.264577A110.886348 110.886348 0 0 0 627.672098 852.971905V355.935056z" fill="#333333" p-id="1416"></path><path d="M514.038892 1024a14.457151 14.457151 0 0 1-14.457151-14.457151v-72.285755h28.914302v72.285755a14.457151 14.457151 0 0 1-14.457151 14.457151zM425.271985 513.951715h72.285755a14.457151 14.457151 0 0 1 14.457151 14.457151 14.457151 14.457151 0 0 1-14.457151 14.457151h-72.285755v-28.914302zM425.271985 584.647183h72.285755a14.457151 14.457151 0 0 1 14.457151 14.457151 14.457151 14.457151 0 0 1-14.457151 14.457151h-72.285755v-28.914302zM425.271985 655.487223h72.285755a14.457151 14.457151 0 0 1 14.457151 14.457151 14.457151 14.457151 0 0 1-14.457151 14.457151h-72.285755v-28.914302z" fill="#333333" p-id="1417"></path></svg>