<?xml version="1.0" encoding="utf-8"?>
<!-- Generator: Adobe Illustrator 23.0.2, SVG Export Plug-In . SVG Version: 6.00 Build 0)  -->
<svg version="1.1" id="图层_1" xmlns="http://www.w3.org/2000/svg" xmlns:xlink="http://www.w3.org/1999/xlink" x="0px" y="0px"
	 viewBox="0 0 200 200" style="enable-background:new 0 0 200 200;" xml:space="preserve">
<style type="text/css">
	.st0{fill:url(#SVGID_1_);}
</style>
<linearGradient id="SVGID_1_" gradientUnits="userSpaceOnUse" x1="97.0916" y1="128.2356" x2="97.0916" y2="23.9391">
	<stop  offset="0" style="stop-color:#25C2A0"/>
	<stop  offset="1" style="stop-color:#2FEED2;stop-opacity:0.52"/>
</linearGradient>
<path class="st0" d="M64.4,101.1c1.5,8.7-0.4,16.7-5.5,24c-1.1,1.6-2.5,3.1-3.9,4.7c0.4-0.2,0.7-0.3,1-0.4c3.7-1.8,7-4,9.8-6.9
	c9.1-9.5,11.9-20.4,8.1-32.8c-0.9-2.9-2.5-5.5-4.2-8.1c-3.8-5.8-5.5-12.1-5.1-19c0.4-7,3-13.3,7.9-18.6c0.1-0.1,0.2-0.3,0.5-0.7
	c-0.5,0.2-0.8,0.3-1.1,0.4C61,48.9,55.1,57.4,54,68.8c-0.7,7.4,1.2,14.2,5.5,20.5C62,92.9,63.6,96.8,64.4,101.1z M98.9,101.1
	c1.5,8.7-0.4,16.7-5.5,24c-1.1,1.6-2.5,3.1-3.9,4.7c0.4-0.2,0.7-0.3,1-0.4c3.7-1.8,7-4,9.8-6.9c9.1-9.5,11.9-20.4,8.1-32.8
	c-0.9-2.9-2.5-5.5-4.2-8.1c-3.8-5.8-5.5-12.1-5.1-19c0.4-7,3-13.3,7.9-18.6c0.1-0.1,0.2-0.3,0.5-0.7c-0.5,0.2-0.8,0.3-1.1,0.4
	c-10.9,5.2-16.7,13.7-17.8,25c-0.7,7.4,1.2,14.2,5.5,20.5C96.5,92.9,98.2,96.8,98.9,101.1z M133.5,101.1c1.5,8.7-0.4,16.7-5.5,24
	c-1.1,1.6-2.5,3.1-3.9,4.7c0.4-0.2,0.7-0.3,1-0.4c3.7-1.8,7-4,9.8-6.9c9.1-9.5,11.9-20.4,8.1-32.8c-0.9-2.9-2.5-5.5-4.2-8.1
	c-3.8-5.8-5.5-12.1-5.1-19c0.4-7,3-13.3,7.9-18.6c0.1-0.1,0.2-0.3,0.5-0.7c-0.5,0.2-0.8,0.3-1.1,0.4c-10.9,5.2-16.7,13.7-17.8,25
	c-0.7,7.4,1.2,14.2,5.5,20.5C131.1,92.9,132.8,96.8,133.5,101.1z M142.5,138.4H51.7c-3.6,0-6.5,2.9-6.5,6.5c0,3.6,2.9,6.5,6.5,6.5
	h90.7c3.6,0,6.5-2.9,6.5-6.5C148.9,141.3,146,138.4,142.5,138.4z"/>
</svg>
