<?xml version="1.0" encoding="utf-8"?>
<!-- Generator: Adobe Illustrator 23.0.2, SVG Export Plug-In . SVG Version: 6.00 Build 0)  -->
<svg version="1.1" id="图层_1" xmlns="http://www.w3.org/2000/svg" xmlns:xlink="http://www.w3.org/1999/xlink" x="0px" y="0px"
	 viewBox="0 0 200 200" style="enable-background:new 0 0 200 200;" xml:space="preserve">
<style type="text/css">
	.st0{fill-rule:evenodd;clip-rule:evenodd;fill:#25C2A0;stroke:url(#矩形_2_);}
	.st1{fill-rule:evenodd;clip-rule:evenodd;fill:#25C2A0;stroke:url(#SVGID_1_);}
	.st2{opacity:0.52;fill-rule:evenodd;clip-rule:evenodd;fill:#2FEED2;fill-opacity:0.67;}
	.st3{fill:#F2F5F7;stroke:url(#路径-3_1_);}
</style>
<g>
	
		<linearGradient id="矩形_2_" gradientUnits="userSpaceOnUse" x1="-451.0807" y1="641.3648" x2="-452.3425" y2="641.106" gradientTransform="matrix(49.6258 0 0 -23 22519.8262 14887.5)">
		<stop  offset="0" style="stop-color:#979797;stop-opacity:0"/>
		<stop  offset="1" style="stop-color:#FFFFFF;stop-opacity:0.3809"/>
	</linearGradient>
	<path id="矩形_1_" class="st0" d="M129.5,121.4c1.2,0,2.3,0.4,3.2,1.1c0.9,0.7,1.6,1.7,1.9,2.8l0,0l6.4,24.2
		c0.4,1.4,0.1,2.8-0.5,4c-0.7,1.2-1.8,2.1-3.2,2.4c-0.4,0.1-0.9,0.2-1.3,0.2l0,0H71.4c-1.5,0-2.8-0.6-3.7-1.5c-1-1-1.5-2.3-1.5-3.7
		c0-0.5,0.1-0.9,0.2-1.3l0,0l6.4-24.2c0.3-1.2,1-2.1,1.9-2.8c0.9-0.7,2-1.1,3.2-1.1l0,0H129.5z"/>
	
		<linearGradient id="SVGID_1_" gradientUnits="userSpaceOnUse" x1="-455.8006" y1="654.1407" x2="-455.8651" y2="653.7761" gradientTransform="matrix(85 0 0 -57 38844.5 37380.5)">
		<stop  offset="0" style="stop-color:#FFFFFF;stop-opacity:0"/>
		<stop  offset="1" style="stop-color:#FFFFFF"/>
	</linearGradient>
	<path class="st1" d="M155.8,47.3c3.1,0,6,1.3,8,3.3s3.3,4.9,3.3,8l0,0v63.5c0,3.1-1.3,6-3.3,8c-2.1,2.1-4.9,3.3-8,3.3l0,0H50
		c-3.1,0-6-1.3-8-3.3c-2.1-2.1-3.3-4.9-3.3-8l0,0V55.6c0-2.3,0.9-4.4,2.4-5.9s3.6-2.4,5.9-2.4l0,0H155.8z"/>
	<path class="st2" d="M47,47.3h111.8c5,0,9.1,4.1,9.1,9.1v12.1l0,0h-130V56.4C37.9,51.4,41.9,47.3,47,47.3z"/>
	
		<linearGradient id="路径-3_1_" gradientUnits="userSpaceOnUse" x1="-451.2898" y1="636.2477" x2="-451.3985" y2="636.1428" gradientTransform="matrix(47.9952 0 0 -18 21766.2773 11545.4697)">
		<stop  offset="0" style="stop-color:#FFFFFF;stop-opacity:0"/>
		<stop  offset="1" style="stop-color:#FFFFFF;stop-opacity:0.722"/>
	</linearGradient>
	<path id="路径-3" class="st3" d="M89.7,80.6c1,0,1.9,0.4,2.6,1.1l0,0l11,15.9l6.3-8.9c0.6-1.1,1.7-1.9,2.9-1.9l0,0l22.4,0
		c1,0,1.9,0.4,2.5,1c0.6,0.6,1,1.5,1,2.5c0,1.1,0,2.1-0.4,2.8c-0.3,0.4-0.7,0.7-1.4,0.7l0,0l-1.7,0h-19.9l-7.8,11.9
		c-0.6,1.1-1.6,1.8-2.7,1.9c-1.1,0.1-2.2-0.2-3-1.1l0,0L88,87.7l-18.6,0c-0.9,0-1.8-0.4-2.4-1c-0.6-0.6-1-1.4-1.1-2.4
		c0-1,0.4-2,1-2.6c0.6-0.7,1.4-1.1,2.4-1.2l0,0L89.7,80.6z"/>
</g>
</svg>
