<?xml version="1.0" encoding="utf-8"?>
<!-- Generator: Adobe Illustrator 23.0.2, SVG Export Plug-In . SVG Version: 6.00 Build 0)  -->
<svg version="1.1" id="图层_1" xmlns="http://www.w3.org/2000/svg" xmlns:xlink="http://www.w3.org/1999/xlink" x="0px" y="0px"
	 viewBox="0 0 200 200" style="enable-background:new 0 0 200 200;" xml:space="preserve">
<style type="text/css">
	.st0{fill:url(#SVGID_1_);}
	.st1{fill:url(#SVGID_2_);}
	.st2{fill:url(#SVGID_3_);}
</style>
<g>
	<linearGradient id="SVGID_1_" gradientUnits="userSpaceOnUse" x1="58.8848" y1="85.7338" x2="58.8848" y2="32.3373">
		<stop  offset="0" style="stop-color:#25C2A0"/>
		<stop  offset="0.5169" style="stop-color:#25C4A2;stop-opacity:0.7519"/>
		<stop  offset="0.7031" style="stop-color:#27CAA9;stop-opacity:0.6625"/>
		<stop  offset="0.8359" style="stop-color:#29D4B4;stop-opacity:0.5988"/>
		<stop  offset="0.9424" style="stop-color:#2CE3C5;stop-opacity:0.5476"/>
		<stop  offset="1" style="stop-color:#2FEED2;stop-opacity:0.52"/>
	</linearGradient>
	<path class="st0" d="M58.5,85.7c9.5,0.5,17.6-7,18.1-16.6s-6.8-17.9-16.3-18.4c-0.6,0-1.2,0-1.8,0c-9.5-0.1-17.3,7.8-17.4,17.5
		C41.2,77.9,49,85.8,58.5,85.7C58.5,85.7,58.5,85.7,58.5,85.7z M58.5,56.5c6.3,0.1,11.4,5.4,11.3,11.8c-0.1,6.5-5.3,11.6-11.6,11.6
		c-6.3-0.1-11.3-5.3-11.3-11.7C47,61.7,52.2,56.4,58.5,56.5z"/>
	<linearGradient id="SVGID_2_" gradientUnits="userSpaceOnUse" x1="58.5352" y1="74.1588" x2="58.5352" y2="62.3339">
		<stop  offset="0" style="stop-color:#25C2A0"/>
		<stop  offset="1" style="stop-color:#2FEED2;stop-opacity:0.52"/>
	</linearGradient>
	<path class="st1" d="M52.7,68.2c0,3.3,2.5,6,5.7,6c3.2,0.1,5.8-2.6,5.9-5.8c0-3.3-2.5-6-5.7-6c0,0-0.1,0-0.1,0
		C55.4,62.3,52.8,64.9,52.7,68.2C52.7,68.2,52.7,68.2,52.7,68.2z"/>
	<linearGradient id="SVGID_3_" gradientUnits="userSpaceOnUse" x1="103.075" y1="163.663" x2="103.075" y2="36.337">
		<stop  offset="0" style="stop-color:#25C2A0"/>
		<stop  offset="0.489" style="stop-color:#29D6B6;stop-opacity:0.7653"/>
		<stop  offset="1" style="stop-color:#2FEED2;stop-opacity:0.52"/>
	</linearGradient>
	<path class="st2" d="M126.2,140.3h-19.4L75.9,85.7c-8.5,9.1-16.8,9.1-21.3,7.8c-3.5-1.3-6.8-3.3-9.6-5.9l30.9,52.6H56.4
		c-4.2,0-7.6,3.5-7.6,7.8l0,0v7.8c0,4.3,3.3,7.8,7.5,7.9c0,0,0.1,0,0.1,0h69.8c4.2,0,7.6-3.4,7.7-7.7c0,0,0,0,0,0v-7.8
		C133.9,143.8,130.5,140.3,126.2,140.3L126.2,140.3z M160.2,74.1c-1.2-1.8-3.6-2.2-5.4-1l-18.2,12.6L124.2,71V60.2L136,46.1
		l18.5,12.7c1.8,1.2,4.1,0.7,5.4-1c1.2-1.7,0.8-4.1-0.9-5.4L136.7,37c-1.8-1.2-4.1-0.7-5.4,1c-0.5,0.8-0.7,1.7-0.6,2.6l-11.9,13.9
		H112c-2.8,0-5.1,2.3-5.1,5.2v-1.3H81.7c1.4,3.1,2,6.4,1.9,9.7c0.1,3.3-0.6,6.6-1.9,9.6h25.1v-1.3c-0.1,2.9,2.1,5.3,4.9,5.4
		c0.1,0,0.1,0,0.2,0h7.2c1.1,0,2.2-0.4,3.1-1.1l8.9,10.5c-0.1,0.9,0.1,1.8,0.6,2.5c1.2,1.8,3.6,2.2,5.4,1l22.3-15.3
		c1.7-1.2,2.2-3.5,1.1-5.3H160.2z"/>
</g>
</svg>
