<?xml version="1.0" encoding="utf-8"?>
<!-- Generator: Adobe Illustrator 23.0.2, SVG Export Plug-In . SVG Version: 6.00 Build 0)  -->
<svg version="1.1" id="图层_1" xmlns="http://www.w3.org/2000/svg" xmlns:xlink="http://www.w3.org/1999/xlink" x="0px" y="0px"
	 viewBox="0 0 200 200" style="enable-background:new 0 0 200 200;" xml:space="preserve">
<style type="text/css">
	.st0{fill:url(#SVGID_1_);}
</style>
<linearGradient id="SVGID_1_" gradientUnits="userSpaceOnUse" x1="99.552" y1="157.6757" x2="99.552" y2="55.2708">
	<stop  offset="0" style="stop-color:#25C2A0"/>
	<stop  offset="0.3433" style="stop-color:#26C5A3;stop-opacity:0.8352"/>
	<stop  offset="0.5883" style="stop-color:#27CDAC;stop-opacity:0.7176"/>
	<stop  offset="0.802" style="stop-color:#2BDABC;stop-opacity:0.6151"/>
	<stop  offset="0.9977" style="stop-color:#2FEED2;stop-opacity:0.5211"/>
	<stop  offset="1" style="stop-color:#2FEED2;stop-opacity:0.52"/>
</linearGradient>
<path class="st0" d="M53.3,73.7C66.6,48.2,98,38.2,123.5,51.5c9.5,4.9,17.3,12.7,22.2,22.2h8.8c-9.3-21.2-30.4-36-55-36
	s-45.7,14.8-55,36C44.6,73.7,53.3,73.7,53.3,73.7z M140.5,129.7c-17.6,22.7-50.2,26.8-72.9,9.1c-3.4-2.6-6.5-5.7-9.1-9.1h-9.7
	c17.6,28,54.6,36.4,82.6,18.8c7.6-4.8,14-11.2,18.8-18.8H140.5z M80.1,107.2v13.2H72V82.6h13c9.4,0,14.1,4,14.1,12
	c0,3.8-1.4,7-4.2,9.3c-2.8,2.3-6.4,3.5-10.6,3.3C84.3,107.2,80.1,107.2,80.1,107.2z M80.1,88.9v12.2h3.5c4.7,0,7.1-2,7.1-6.1
	c0-4-2.4-6-7-6C83.6,88.9,80.1,88.9,80.1,88.9z M134.7,120.4h-8.8l-2.8-8.6h-13.7l-2.8,8.6H98l13.8-37.8h9.5
	C121.2,82.6,134.7,120.4,134.7,120.4z M121.2,105.5l-4.3-13.1c-0.3-0.8-0.4-1.9-0.6-3.3h-0.2c-0.1,1.1-0.3,2.2-0.6,3.2l-4.3,13.2
	H121.2z"/>
</svg>
